PathFileType	4	(X/Y/Z)	31_1_25_p0_0-338_filt_butterworth.trc
DataRate	CameraRate	NumFrames	NumMarkers	Units	OrigDataRate	OrigDataStartFrame	OrigNumFrames
60.0	60.0	6	27	m	60.0	295	338
Frame#	Time	RHip			RKnee			RAnkle			RBigToe			RSmallToe			RHeel			LHip			LKnee			LAnkle			LBigToe			LSmallToe			LHeel			Neck			Head			Nose			RShoulder			RElbow			RWrist			RThumb			RIndex			RPinky			LShoulder			LElbow			LWrist			LThumb			LIndex			LPinky			
		X1	Y1	Z1	X2	Y2	Z2	X3	Y3	Z3	X4	Y4	Z4	X5	Y5	Z5	X6	Y6	Z6	X7	Y7	Z7	X8	Y8	Z8	X9	Y9	Z9	X10	Y10	Z10	X11	Y11	Z11	X12	Y12	Z12	X13	Y13	Z13	X14	Y14	Z14	X15	Y15	Z15	X16	Y16	Z16	X17	Y17	Z17	X18	Y18	Z18	X19	Y19	Z19	X20	Y20	Z20	X21	Y21	Z21	X22	Y22	Z22	X23	Y23	Z23	X24	Y24	Z24	X25	Y25	Z25	X26	Y26	Z26	X27	Y27	Z27	
295	4.916666666666667	0.21720398833876847	0.5493540530462407	0.19607139456471961	0.1833736557640341	0.7930408315486442	0.5414612057673861	0.11483716865070465	1.0795058973270855	0.9149830769553502	0.06401489974878068	0.8176043083291328	1.0119408200616287	0.13077391081253223	0.8606074920072013	1.0086175861628353	0.09254246812542062	1.1581235800790974	0.9509288838843434	0.0004820845877167356	0.5914413519949184	0.1859500446343163	-0.04661431551730591	0.8107914219977551	0.5269018766586806	-0.08090175203702335	1.0226410871760083	0.8935841561592733	-0.07186053464323165	0.8595414101862267	0.9886090978067319	-0.13361846756408205	0.9066148935526506	0.9702852324598342	-0.058972929027310106	1.0954704386107235	0.9282950060773458	0.11235452211934416	0.2647205045042387	-0.3753310178247297	0.08147332234962054	0.06570165632028041	-0.5783489976730734	0.07721849510081717	0.08189283193440307	-0.4136884119524381	0.27261523963805084	0.30939245387446584	-0.3054164781267466	0.38159428065053624	0.4530079697884868	-0.06980846080778698	0.2625356057575283	0.40439476483224923	0.17687190133963138	0.1443183852121553	0.40088528639075205	0.2660207081975415	0.15596371263140696	0.4002223466732478	0.278465769536654	0.19538228409770617	0.42942085809585295	0.28254165749522253	-0.042822991581044176	0.3386913284025043	-0.30018538859925437	-0.0901641835120147	0.4510528599639736	-0.03916987621861342	-0.037707185995765544	0.41560508373717375	0.22372172598648835	0.035998601262272084	0.4081947641236392	0.31178176917408384	0.023651144347128956	0.3963167301547065	0.35830362611263483	-0.02708787807921804	0.41870879555186613	0.3503020729361216
296	4.933333333333334	0.21743216342161864	0.5445278170389652	0.1981722484198783	0.18223044499828486	0.8004687386846896	0.5424653943233663	0.1148671067707052	1.0794321947378511	0.9148783669695327	0.06421581628005224	0.8182408538639221	1.011927549823807	0.13012042816217573	0.8672317093997358	1.00920031390782	0.09251316822260783	1.1580085736552905	0.9509729972209495	-0.0006296676663047441	0.5879909855825591	0.1867574450334575	-0.049565086832338706	0.810770088259411	0.526632173671655	-0.08088532354160284	1.0225766929936095	0.8935408251087977	-0.07175822554298382	0.8595958096299348	0.9885979923492901	-0.1336646229701102	0.9065948195825344	0.9702803219536233	-0.058986657939599146	1.0952937215667125	0.9281993164175146	0.1142120857021081	0.26746783286334996	-0.3766848972810999	0.08386318473637502	0.06549435112171323	-0.578176022800023	0.0794844648733522	0.08518583655734867	-0.41490692650142846	0.2730910336804877	0.3099279715399508	-0.30457135011687864	0.37919253946236875	0.4508695201848719	-0.0673730146128289	0.2551052209612906	0.4013662104564316	0.17397161243853568	0.14014726183800455	0.389648875210991	0.2591943268618924	0.14675768162953529	0.3936867755355525	0.27231847732158454	0.18544633551119347	0.4280236728198614	0.27616002281406477	-0.042810441499064766	0.3379734521710736	-0.3005848709135793	-0.08983785020082148	0.450076871784176	-0.038217724025328734	-0.03315344086328588	0.40885501840382343	0.22223432511432556	0.04571279316558884	0.4121497860475354	0.30410887051470686	0.03235689479971307	0.39807810649010095	0.35530838284820737	-0.016384662821673755	0.4021675412071297	0.3511813585597954
297	4.95	0.21630844678178807	0.5408309146578657	0.20049644514302617	0.18161936455700753	0.8062786776834981	0.543377941514181	0.1148664652592814	1.0794288378237058	0.9148806986829887	0.06442469269781828	0.8189015776647013	1.0119412849705167	0.12938826957561295	0.8720771694607279	1.0096115956354172	0.09249797396385401	1.1578962692570367	0.9510431380300637	-0.0016422187363165936	0.5862217437077425	0.1885327014487689	-0.051840705462543844	0.8111304534353664	0.5274312667159717	-0.08087628028378052	1.0225613631983945	0.8935333265999201	-0.07173126856182938	0.859960562303958	0.988645217302627	-0.13370909787387023	0.9065845040895172	0.9702081532139968	-0.05899447625111757	1.095334889871096	0.9282388587979338	0.1156316686195413	0.2688776264677391	-0.37716207958239745	0.08514410762858964	0.06502622978063505	-0.5782351259696883	0.08083355329046321	0.08771044279762792	-0.41655235944795876	0.2733043481479003	0.31068745832837535	-0.30346258152291133	0.3775804061448577	0.4488532981465904	-0.06517736028645342	0.2488553474831503	0.3962522187406326	0.17053470038139948	0.13556950624908923	0.3774429933778531	0.2503054850305073	0.1391533721087969	0.38435042592289576	0.2667202523294037	0.17609851986318176	0.4263741214219413	0.270884113765153	-0.04246958598515596	0.3378627058446508	-0.3006459207328178	-0.08930892981181295	0.4469733890611758	-0.03626068927476515	-0.026495245046372858	0.3956535634320372	0.2223470627812905	0.054292513990744064	0.4060984879451467	0.29753020458367163	0.04324425285879149	0.3971098808674527	0.35206313346348217	-0.005518131178699889	0.3943230991454044	0.3515615890229687
298	4.966666666666667	0.21413260768330564	0.5394298915805249	0.2032224746349579	0.1815270432666464	0.8085392194478167	0.543810200056908	0.11474673471889141	1.07967931780171	0.91529532497307	0.0645088746827473	0.8192637991900065	1.0119920923220116	0.1294489625744881	0.8739448714408502	1.009823034566275	0.09249980477960179	1.1578415606451489	0.9511232393222744	-0.003204829883187459	0.5863496663380834	0.19112382226964839	-0.05358497585740632	0.8121073074276177	0.529590122574604	-0.08087580272489527	1.0226126840861844	0.8936039229984448	-0.07233541321491757	0.860714647104126	0.988703345542036	-0.13375101329051686	0.9065899786256186	0.970109459476179	-0.058987624807017414	1.0949613616791856	0.9282741840117473	0.11694886899567239	0.2693045439506723	-0.377201987638245	0.08586092786734638	0.06463059898733489	-0.5788753765934037	0.08170378884774705	0.08928366655391179	-0.41904071139601096	0.2738963503668354	0.31135257435610353	-0.30261302876749907	0.3757812828820124	0.44507848451987775	-0.06321355104043973	0.24352166826088487	0.38858960690871874	0.1672050332627103	0.1300985779857402	0.364574626561484	0.24041139901270586	0.13266323021174903	0.37243984618105014	0.2613592872758963	0.16679658015990895	0.42219709720298887	0.2666236957861135	-0.041573157132189786	0.33894017564543427	-0.3010206318400516	-0.0885189618937198	0.441577112910528	-0.03401311687876412	-0.016865258164967943	0.37710941172021856	0.22374560528193732	0.06183053939855394	0.39138791926718747	0.29233185406772966	0.05431895811848118	0.3910330545445166	0.34898726083977494	0.005332252725460398	0.393074901554829	0.3511124834336101
299	4.983333333333333	0.21175868898099182	0.5423473566547952	0.20642137209634068	0.18139618359065324	0.808534883687193	0.5440118809519651	0.11444506918558484	1.0802994912157136	0.9163376588839863	0.06430141019010645	0.8188293488563093	1.0120391480650426	0.13041678310379373	0.8741416442231942	1.0099834730209123	0.09250754607280486	1.1578340588591818	0.9512016110950612	-0.006433952411404303	0.5888119662409297	0.19402926958253214	-0.0547477281032929	0.8134192151719268	0.5324375604576909	-0.0808870607813972	1.0227002294009528	0.8937344087439785	-0.07408262773972871	0.8614636993006834	0.98873821210761	-0.13378655891251182	0.9066342857372516	0.9701614489148265	-0.05898060842833612	1.0942300545496981	0.928280459913664	0.11834847514178298	0.26932229093255927	-0.3771472507016584	0.08687336652171741	0.06455143418462753	-0.5799993926728796	0.08279260256181636	0.0910539053680495	-0.42256374410447917	0.2752592290498294	0.3115486175210647	-0.3021823133710423	0.37354520969221716	0.43978447938494525	-0.06158346271304288	0.23764196262502477	0.37630921329500405	0.16390879105060163	0.12398804830484333	0.3522373866505708	0.2304376594992121	0.12651487037401327	0.3587950186810432	0.2562073597996638	0.1570795364873391	0.4126580419452701	0.2629314536058934	-0.04032526015099277	0.34139913650002673	-0.30251675878251444	-0.08773511316852715	0.4353360832623936	-0.03206945197438245	-0.004861684667412469	0.3598470017768671	0.22527674214056065	0.0694351814009675	0.3749355330984443	0.28861521051082994	0.06303772749245182	0.3793690047078911	0.3453608998204098	0.015507454869462735	0.3947989693681527	0.34899349231711835
300	5.0	0.20963771448595647	0.5493089256419394	0.20951835913346495	0.18094228383287606	0.8084868976970733	0.5447934734136749	0.11405710715263326	1.0811337618098387	0.9177057530695916	0.06363037106365302	0.8168345003222135	1.0119440176492347	0.131488533543933	0.8741182690459454	1.010131564803683	0.09252122284400033	1.1578709156068956	0.9512546303670293	-0.010871845910959129	0.5938735351197649	0.19648060231682307	-0.05523991005513332	0.81444438275785	0.5346372226430095	-0.08090531297500228	1.022770023443103	0.8938607027612498	-0.0765179284841503	0.8617444155455614	0.988765055956218	-0.13381263899740656	0.906734755287655	0.9706758272277664	-0.058991802761465484	1.0943950705105518	0.9283757720321408	0.12014657060931648	0.26917042245588835	-0.37706185444118107	0.08854448871815947	0.06547622543236276	-0.5813739290917694	0.08414093508659118	0.09332506526129934	-0.4262946111707404	0.2770274811822437	0.31106039655816525	-0.301894700727243	0.3718782383563974	0.43578341983948343	-0.06072199370451037	0.23058629527588018	0.3589623086538338	0.16004566959026006	0.11829060595236687	0.3419744799193783	0.22169393593528075	0.11991025331626912	0.34582143861863124	0.2518707218443562	0.14674393226522894	0.3965858054807797	0.2602999602830831	-0.03926048744269317	0.34421050704468026	-0.3052597992896217	-0.08726772320238245	0.4300028834281755	-0.03098931999641081	0.007500306706921385	0.3500363117060057	0.22534768283621126	0.07751179233093478	0.3625876058574068	0.28577160449552363	0.0690921386894152	0.3643125738865524	0.33934059727927407	0.025014631983748734	0.39632779518809413	0.3448635531750437
